<svg width="143" height="58" viewBox="0 0 143 58" fill="none" xmlns="http://www.w3.org/2000/svg">
<path d="M15.5566 26.2852C15.5566 25.2891 15.2051 24.5273 14.502 24C13.7988 23.4609 12.5332 22.8984 10.7051 22.3125C8.87695 21.7148 7.42969 21.1289 6.36328 20.5547C3.45703 18.9844 2.00391 16.8691 2.00391 14.209C2.00391 12.8262 2.39062 11.5957 3.16406 10.5176C3.94922 9.42773 5.06836 8.57813 6.52148 7.96875C7.98633 7.35937 9.62695 7.05469 11.4434 7.05469C13.2715 7.05469 14.9004 7.38867 16.3301 8.05664C17.7598 8.71289 18.8672 9.64453 19.6523 10.8516C20.4492 12.0586 20.8477 13.4297 20.8477 14.9648H15.5742C15.5742 13.793 15.2051 12.8848 14.4668 12.2402C13.7285 11.584 12.6914 11.2559 11.3555 11.2559C10.0664 11.2559 9.06445 11.5313 8.34961 12.082C7.63477 12.6211 7.27734 13.3359 7.27734 14.2266C7.27734 15.0586 7.69336 15.7559 8.52539 16.3184C9.36914 16.8809 10.6055 17.4082 12.2344 17.9004C15.2344 18.8027 17.4199 19.9219 18.791 21.2578C20.1621 22.5938 20.8477 24.2578 20.8477 26.25C20.8477 28.4648 20.0098 30.2051 18.334 31.4707C16.6582 32.7246 14.4023 33.3516 11.5664 33.3516C9.59766 33.3516 7.80469 32.9941 6.1875 32.2793C4.57031 31.5527 3.33398 30.5625 2.47852 29.3086C1.63477 28.0547 1.21289 26.6016 1.21289 24.9492H6.50391C6.50391 27.7734 8.19141 29.1855 11.5664 29.1855C12.8203 29.1855 13.7988 28.9336 14.502 28.4297C15.2051 27.9141 15.5566 27.1992 15.5566 26.2852ZM30.1816 9.30469V13.9805H33.4336V17.707H30.1816V27.1992C30.1816 27.9023 30.3164 28.4062 30.5859 28.7109C30.8555 29.0156 31.3711 29.168 32.1328 29.168C32.6953 29.168 33.1934 29.127 33.627 29.0449V32.8945C32.6309 33.1992 31.6055 33.3516 30.5508 33.3516C26.9883 33.3516 25.1719 31.5527 25.1016 27.9551V17.707H22.3242V13.9805H25.1016V9.30469H30.1816ZM47.6543 31.0664C46.4004 32.5898 44.666 33.3516 42.4512 33.3516C40.4121 33.3516 38.8535 32.7656 37.7754 31.5938C36.709 30.4219 36.1641 28.7051 36.1406 26.4434V13.9805H41.2207V26.2676C41.2207 28.248 42.123 29.2383 43.9277 29.2383C45.6504 29.2383 46.834 28.6406 47.4785 27.4453V13.9805H52.5762V33H47.7949L47.6543 31.0664ZM55.6172 23.3496C55.6172 20.3848 56.2793 18.0234 57.6035 16.2656C58.9395 14.5078 60.7617 13.6289 63.0703 13.6289C64.9219 13.6289 66.4512 14.3203 67.6582 15.7031V6H72.7559V33H68.168L67.9219 30.9785C66.6562 32.5605 65.0273 33.3516 63.0352 33.3516C60.7969 33.3516 58.998 32.4727 57.6387 30.7148C56.291 28.9453 55.6172 26.4902 55.6172 23.3496ZM60.6973 23.7188C60.6973 25.5 61.0078 26.8652 61.6289 27.8145C62.25 28.7637 63.1523 29.2383 64.3359 29.2383C65.9062 29.2383 67.0137 28.5762 67.6582 27.252V19.7461C67.0254 18.4219 65.9297 17.7598 64.3711 17.7598C61.9219 17.7598 60.6973 19.7461 60.6973 23.7188ZM82.0547 33H76.957V13.9805H82.0547V33ZM76.6582 9.05859C76.6582 8.29688 76.9102 7.66992 77.4141 7.17773C77.9297 6.68555 78.627 6.43945 79.5059 6.43945C80.373 6.43945 81.0645 6.68555 81.5801 7.17773C82.0957 7.66992 82.3535 8.29688 82.3535 9.05859C82.3535 9.83203 82.0898 10.4648 81.5625 10.957C81.0469 11.4492 80.3613 11.6953 79.5059 11.6953C78.6504 11.6953 77.959 11.4492 77.4316 10.957C76.916 10.4648 76.6582 9.83203 76.6582 9.05859ZM85.4648 23.3145C85.4648 21.4277 85.8281 19.7461 86.5547 18.2695C87.2812 16.793 88.3242 15.6504 89.6836 14.8418C91.0547 14.0332 92.6426 13.6289 94.4473 13.6289C97.0137 13.6289 99.1055 14.4141 100.723 15.9844C102.352 17.5547 103.26 19.6875 103.447 22.3828L103.482 23.6836C103.482 26.6016 102.668 28.9453 101.039 30.7148C99.4102 32.4727 97.2246 33.3516 94.4824 33.3516C91.7402 33.3516 89.5488 32.4727 87.9082 30.7148C86.2793 28.957 85.4648 26.5664 85.4648 23.543V23.3145ZM90.5449 23.6836C90.5449 25.4883 90.8848 26.8711 91.5645 27.832C92.2441 28.7812 93.2168 29.2559 94.4824 29.2559C95.7129 29.2559 96.6738 28.7871 97.3652 27.8496C98.0566 26.9004 98.4023 25.3887 98.4023 23.3145C98.4023 21.5449 98.0566 20.1738 97.3652 19.2012C96.6738 18.2285 95.7012 17.7422 94.4473 17.7422C93.2051 17.7422 92.2441 18.2285 91.5645 19.2012C90.8848 20.1621 90.5449 21.6562 90.5449 23.6836Z" fill="#151515"/>
<path d="M81.9082 40.0547C83.2559 38.4375 84.9492 37.6289 86.9883 37.6289C91.1133 37.6289 93.2051 40.0254 93.2637 44.8184V57H88.1836V44.959C88.1836 43.8691 87.9492 43.0664 87.4805 42.5508C87.0117 42.0234 86.2324 41.7598 85.1426 41.7598C83.6543 41.7598 82.5762 42.334 81.9082 43.4824V57H76.8281V30H81.9082V40.0547ZM108.117 57C107.883 56.543 107.713 55.9746 107.607 55.2949C106.377 56.666 104.777 57.3516 102.809 57.3516C100.945 57.3516 99.3984 56.8125 98.168 55.7344C96.9492 54.6562 96.3398 53.2969 96.3398 51.6562C96.3398 49.6406 97.084 48.0938 98.5723 47.0156C100.072 45.9375 102.234 45.3926 105.059 45.3809H107.396V44.291C107.396 43.4121 107.168 42.709 106.711 42.1816C106.266 41.6543 105.557 41.3906 104.584 41.3906C103.729 41.3906 103.055 41.5957 102.562 42.0059C102.082 42.416 101.842 42.9785 101.842 43.6934H96.7617C96.7617 42.5918 97.1016 41.5723 97.7812 40.6348C98.4609 39.6973 99.4219 38.9648 100.664 38.4375C101.906 37.8984 103.301 37.6289 104.848 37.6289C107.191 37.6289 109.049 38.2207 110.42 39.4043C111.803 40.5762 112.494 42.2285 112.494 44.3613V52.6055C112.506 54.4102 112.758 55.7754 113.25 56.7012V57H108.117ZM103.916 53.4668C104.666 53.4668 105.357 53.3027 105.99 52.9746C106.623 52.6348 107.092 52.1836 107.396 51.6211V48.3516H105.498C102.955 48.3516 101.602 49.2305 101.438 50.9883L101.42 51.2871C101.42 51.9199 101.643 52.4414 102.088 52.8516C102.533 53.2617 103.143 53.4668 103.916 53.4668ZM121.758 57H116.66V37.9805H121.758V57ZM116.361 33.0586C116.361 32.2969 116.613 31.6699 117.117 31.1777C117.633 30.6855 118.33 30.4395 119.209 30.4395C120.076 30.4395 120.768 30.6855 121.283 31.1777C121.799 31.6699 122.057 32.2969 122.057 33.0586C122.057 33.832 121.793 34.4648 121.266 34.957C120.75 35.4492 120.064 35.6953 119.209 35.6953C118.354 35.6953 117.662 35.4492 117.135 34.957C116.619 34.4648 116.361 33.832 116.361 33.0586ZM136.646 42.7441C135.955 42.6504 135.346 42.6035 134.818 42.6035C132.896 42.6035 131.637 43.2539 131.039 44.5547V57H125.959V37.9805H130.758L130.898 40.248C131.918 38.502 133.33 37.6289 135.135 37.6289C135.697 37.6289 136.225 37.7051 136.717 37.8574L136.646 42.7441Z" fill="#151515"/>
</svg>
